<svg xmlns="http://www.w3.org/2000/svg" viewBox="0 0 1600 1000" role="img" aria-labelledby="title desc">
  <!-- Authored offline illustration. Concept: a personal publishing workflow from markdown draft to instant public release. -->
  <title id="title">Custom CMS blog cover illustration</title>
  <desc id="desc">An editorial desk-like diagram of a markdown draft becoming stored content and an instantly published portfolio post.</desc>
  <rect width="1600" height="1000" fill="#f4ecd6"/>
  <rect x="72" y="72" width="1456" height="856" rx="32" fill="#f3c9b6"/>
  <path d="M118 760H1482" stroke="#211922" stroke-width="4" opacity="0.2"/>
  <rect x="154" y="164" width="520" height="560" rx="16" fill="#ffffff" stroke="#211922" stroke-width="5"/>
  <rect x="196" y="210" width="436" height="64" rx="8" fill="#1f1d3d"/>
  <text x="230" y="251" fill="#f7f7f5" font-family="monospace" font-size="17" letter-spacing="4">NEW POST / DRAFT</text>
  <path d="M216 344H590M216 392H548M216 440H574M216 488H492" stroke="#211922" stroke-width="12" stroke-linecap="round"/>
  <rect x="216" y="552" width="170" height="52" rx="8" fill="#c5b0f4"/>
  <rect x="404" y="552" width="154" height="52" rx="8" fill="#dceeb1"/>
  <text x="244" y="586" fill="#211922" font-family="monospace" font-size="15" letter-spacing="2">MARKDOWN</text>
  <text x="432" y="586" fill="#211922" font-family="monospace" font-size="15" letter-spacing="2">TAGS</text>
  <text x="196" y="678" fill="#6f6f6f" font-family="monospace" font-size="16" letter-spacing="2">EDIT FROM ANYWHERE</text>

  <path d="M730 360H888M730 566H888" stroke="#1f1d3d" stroke-width="6" stroke-dasharray="14 14"/>
  <path d="M854 334L892 360L854 386M854 540L892 566L854 592" fill="none" stroke="#1f1d3d" stroke-width="6" stroke-linecap="round" stroke-linejoin="round"/>
  <text x="730" y="314" fill="#211922" font-family="monospace" font-size="16" letter-spacing="3">SAVE</text>
  <text x="730" y="520" fill="#211922" font-family="monospace" font-size="16" letter-spacing="3">PUBLISH</text>

  <rect x="918" y="212" width="454" height="222" rx="16" fill="#c8e6cd" stroke="#211922" stroke-width="5"/>
  <text x="962" y="274" fill="#211922" font-family="monospace" font-size="17" letter-spacing="4">POSTGRES / CONTENT</text>
  <ellipse cx="1145" cy="344" rx="110" ry="32" fill="#1f1d3d"/>
  <path d="M1035 344V392C1035 410 1084 424 1145 424C1206 424 1255 410 1255 392V344" fill="#1f1d3d"/>
  <ellipse cx="1145" cy="392" rx="110" ry="32" fill="#1f1d3d"/>

  <rect x="918" y="504" width="454" height="222" rx="16" fill="#1f1d3d"/>
  <text x="962" y="566" fill="#f3c9b6" font-family="monospace" font-size="17" letter-spacing="4">PUBLIC / UNDER A SECOND</text>
  <rect x="962" y="612" width="358" height="58" rx="8" fill="#f7f7f5"/>
  <path d="M994 641H1268" stroke="#211922" stroke-width="10" stroke-linecap="round"/>
  <text x="160" y="850" fill="#211922" font-family="monospace" font-size="18" letter-spacing="4">ONE USER / ONE STACK / NO BUILD WAIT</text>
</svg>
